PathFileType	4	(X/Y/Z)	Patient4_TMGait_0pt2_02_right_02.trc.trc
DataRate	CameraRate	NumFrames	NumMarkers	Units	OrigDataRate	OrigDataStartFrame	OrigNumFrames
40.697674418605	40.697674418605	6	33	mm	40.697674418605	1	       141
Frame#	Time	R.Midfoot.Superior			Sacral			L.Shoulder			Chest			R.Shoulder			Neck			R.ASIS			L.ASIS			R.Thigh.Superior			R.Thigh.Lateral			R.Thigh.Inferior			R.Patella			L.Thigh.Superior			L.Thigh.Lateral			L.Thigh.Inferior			L.Patella			L.Shank.Superior			L.Shank.Lateral			L.Shank.Inferior			R.Shank.Superior			R.Shank.Lateral			R.Shank.Inferior			R.Heel			R.Midfoot.Lateral			R.Toe			L.Heel			L.Midfoot.Lateral			L.Midfoot.Superior			L.Toe			L.Elbow			L.Wrist			R.Elbow			R.Wrist			
		X1	Y1	Z1	X2	Y2	Z2	X3	Y3	Z3	X4	Y4	Z4	X5	Y5	Z5	X6	Y6	Z6	X7	Y7	Z7	X8	Y8	Z8	X9	Y9	Z9	X10	Y10	Z10	X11	Y11	Z11	X12	Y12	Z12	X13	Y13	Z13	X14	Y14	Z14	X15	Y15	Z15	X16	Y16	Z16	X17	Y17	Z17	X18	Y18	Z18	X19	Y19	Z19	X20	Y20	Z20	X21	Y21	Z21	X22	Y22	Z22	X23	Y23	Z23	X24	Y24	Z24	X25	Y25	Z25	X26	Y26	Z26	X27	Y27	Z27	X28	Y28	Z28	X29	Y29	Z29	X30	Y30	Z30	X31	Y31	Z31	X32	Y32	Z32	X33	Y33	Z33	

1	2.910000000000	909.678038390025	105.749365052160	561.138386437407	824.597997194873	1016.159445830677	427.758905515575	990.998335565942	1438.056425797847	231.160318441684	1109.098156891387	1366.134390984546	379.892037427145	1049.058218210046	1441.923873607304	560.966650758665	987.933840963684	1500.684361087991	388.879155400455	1058.615912084534	944.120076571123	526.317225265217	1025.207544636046	964.728241929190	255.380954036813	1084.773277622603	737.523994050270	503.771096055988	1004.337120996815	633.621785323279	576.123638041838	1074.467979509235	571.861964821093	495.504226107231	1069.724576248811	471.529450921738	512.941626519215	1081.817586778968	758.218550241833	295.537798282300	1002.964502320391	632.782365324746	236.639992163072	1090.986765295578	563.610246138140	302.891466564272	1094.449630875756	492.824727972259	312.136576850084	1067.688438205656	419.233602947464	305.233590979341	979.119904218104	304.371965077137	254.503317637828	1029.683564343630	193.729412529795	326.855682240755	1008.002415240287	399.022916655753	525.719733305850	908.576484775203	332.486894927478	599.858666561986	912.508714189919	223.885473456072	544.935864358914	729.634104837094	102.451475764536	533.383756540704	810.974479096981	67.963705550790	601.777798670200	1009.621976264335	36.049237784975	578.385913815234	899.268249635019	38.272050590706	364.600883367414	974.947188236093	35.744633338850	285.674274242352	1057.481447277067	97.152438010446	314.119264653349	1186.350015236708	46.690095857930	287.994700907723	925.321690231635	1087.893300602710	122.942937332383	941.161463695324	826.136537497568	139.622434791189	1163.446124185987	1105.599751536927	661.659281048586	1411.902075938889	1051.808184679994	603.182775039616	
2	2.934571428571	911.520441735782	111.742514669691	561.174059222453	821.780350057733	1012.347729053427	419.920447789583	992.020034468468	1436.110717978507	228.688307357229	1106.920332937333	1363.298832802685	379.272441476843	1043.264576196556	1437.399939892110	559.744746719630	985.934222366767	1497.826887026519	386.964492407631	1055.592867207884	941.571830594841	521.490205438904	1025.413729080117	962.640031995961	250.639978365805	1091.449915233204	739.625425286243	497.060174959164	1016.798859464153	632.748894952001	569.419369028691	1089.599585786737	573.852205625305	488.485991644149	1087.729297137254	471.394877537078	506.464489751419	1083.737420785730	756.839951024894	291.447916535376	1006.525498676295	630.381011376550	233.233541979012	1094.560983518180	562.211167402214	300.732349341426	1098.479667963373	490.894455137437	310.243653505405	1070.066997173143	416.766833020076	303.666208383634	979.811289093781	303.211904628974	253.090573274450	1027.280899413510	192.317120809615	326.502655007550	1023.247136446699	399.387280651247	520.108459523080	921.873186687932	338.568445813675	595.944549783202	920.035073880968	229.807771270023	542.757729791381	732.069164076136	120.036459033686	534.780784593912	811.221000029485	80.765720675974	602.550423038613	1005.640414139089	35.335617423872	577.928918913058	894.556838246477	38.312667612004	364.533056813835	970.243562488099	35.726757200064	285.583243812343	1052.911105012962	96.928676137873	314.212968669138	1181.749228461691	46.154242375707	288.012111379742	941.802032201034	1085.109330469885	116.461244747455	969.944675118849	825.227404007871	133.297167725098	1143.437944773974	1095.455951931693	658.536572710207	1380.127851231331	1013.560693784982	607.915544481190	
3	2.959142857143	913.739742877041	118.015654499830	560.955305788236	818.991466599805	1008.234730798203	412.023795635277	992.959498084800	1434.017047276394	226.228706068035	1104.599952131794	1360.287847888279	378.672304506221	1037.208242111465	1432.555443503718	558.525904899422	983.778551696599	1494.749486500213	385.077160884160	1052.590785458782	938.907382857567	516.648935421730	1025.584602541527	960.342056752915	245.781862931963	1098.155454702049	741.785851223940	490.074976180326	1029.554682678991	631.985236863723	562.467778527216	1104.818131701378	576.043472039929	481.018760883536	1106.014886535480	471.462878210794	499.573332627279	1085.843780443377	755.315263957815	287.229990162364	1010.296536502062	627.750367000185	229.859311904419	1098.429108843161	560.654929332836	298.635594747401	1102.854416498727	488.779781589555	308.474206652402	1072.676327974856	414.112578221276	302.211456137211	980.604582273806	302.001516879406	251.751702048498	1024.807198781296	190.810690640621	326.190760675362	1038.775403053914	399.852273974366	514.239732917082	935.384581942368	344.810095815109	591.708998521189	927.851553109307	235.833875275598	540.346442457990	734.870897005016	137.530993320550	535.936234947244	811.930695900254	93.739086016827	603.152879461081	1002.225054701489	34.828711969486	577.426917379442	889.608687568623	38.367985997517	364.460784791744	965.307565323630	35.717342815555	285.494729524173	1048.119707960505	96.695291557527	314.322110367909	1176.918501975019	45.582203031953	288.022714067208	959.052074160484	1082.490038827258	109.871191013520	1000.581544345378	824.992707756936	126.876881691862	1122.249725654358	1085.092608057847	655.449479327323	1344.902929364855	974.470227042932	612.781662401210	
4	2.983714285714	916.614634169522	124.231898137945	560.434616014038	816.358668825348	1003.969959889766	404.372295080537	993.783282382015	1431.866418693557	223.896051686809	1102.201423907294	1357.226982364961	378.141184306446	1031.054719372539	1427.563565095060	557.361410363744	981.522799896760	1491.568690957123	383.303058713020	1049.719332444154	936.242711873343	511.980201841862	1025.736804167335	957.921379874631	240.998148291097	1104.544626745895	743.938125129451	483.116744407092	1042.014385180982	631.422988462746	555.586734250383	1119.390649692048	578.405649196750	473.426098128648	1123.764201277809	471.837337608271	492.579657825931	1088.054813957298	753.678118409788	283.053739413351	1014.105170863316	624.968885517265	226.668866702012	1102.408370617670	558.971138271065	296.709177720341	1107.365809561728	486.535611847963	306.936489804205	1075.366384902728	411.355430476378	300.957972229897	981.413402324980	300.783768381384	250.555487419439	1022.290054749619	189.261397630466	325.938570113096	1053.956179767274	400.446002654281	508.387613873716	948.583441617225	350.867287394728	587.295550520013	935.845392964691	241.607527733823	537.768710069409	738.271456868573	153.772143782638	536.665716542537	813.480091825358	106.084230043866	603.477147379366	1000.070187980186	34.606731358399	576.922706336636	884.534791705721	38.437828179821	364.384741088040	960.251331329703	35.717924100965	285.411061549259	1043.213824398167	96.460044176350	314.442068879976	1171.965629012880	44.994627126174	288.024464853137	976.615599738477	1080.294570973008	103.413755039723	1032.454078889946	825.870674024869	120.634836611110	1100.265765010624	1075.032010840654	652.554375392452	1306.461860796583	936.244778566063	617.590721725826	
5	3.008285714286	920.517289753281	129.976904503566	559.604716874905	813.976861343291	999.745645861207	397.196526930192	994.500409710932	1429.779399595390	221.777547318144	1099.795637817940	1354.265941694132	377.726446835967	1024.946418084534	1422.635478293150	556.285078655599	979.233048750507	1488.432686439919	381.700696353227	1047.046273686987	933.716208527863	507.653609197259	1025.909378581891	955.500885532731	236.458590342937	1110.285745658698	746.024029681255	476.503129445820	1053.593492114391	631.143723438190	549.118099805614	1132.651010870236	580.894682259816	466.097792552992	1140.223276107074	472.608876023745	485.873095435286	1090.252610773789	751.973280394876	279.086372772580	1017.739619749367	622.142978043189	223.778125828163	1106.246105498286	557.202966010486	295.037689580025	1111.722826357891	484.234751196058	305.707870365756	1077.916644948807	408.598227119814	299.963799185165	982.097794070855	299.601501715748	249.543686224023	1019.711198650433	187.728631654039	325.754614869101	1068.229594897784	401.192614809161	502.869892833573	961.018447795284	356.364886840313	582.889223904798	943.996484260157	246.742492802662	535.126232590854	742.590717604403	167.561336996187	536.800441372680	816.315650985351	116.928655342422	603.428581580565	999.940823325001	34.723289844022	576.475411858078	879.418920267956	38.518815361639	364.305075873242	955.158759530704	35.727718696235	285.332619708671	1038.270294087086	96.230611407968	314.565335900999	1166.970391371456	44.415303064667	288.016749347022	994.111584577518	1078.786145562200	97.278761809349	1065.027442530582	828.318156547687	114.808443967289	1077.755379286691	1065.807777801158	649.979148582031	1265.105144389092	900.508911027684	622.164404075023	
6	3.032857142857	925.888158798814	134.802187832502	558.510011964102	811.900339900546	995.788665542490	390.636639512982	995.164211972843	1427.899259603236	219.929590412138	1097.456222242011	1351.571728074115	377.473246084947	1018.994690179628	1418.013203052869	555.313111977164	976.983339004811	1485.514941556603	380.298262703831	1044.588158658728	931.477924657957	503.806617676136	1026.160200502632	953.234317582956	232.305423511119	1115.088169696853	748.002237724037	470.549459673424	1063.750136214047	631.210230100186	543.400926315075	1144.048905541966	583.455288796897	459.464089953576	1154.752429724189	473.847950260998	479.889031492764	1092.287857839206	750.257357699011	275.482874788665	1020.961826691112	619.404217464281	221.258374886351	1109.634771943157	555.408246925986	293.674064366826	1115.568879030204	481.967001484872	304.824249366768	1080.048777429556	405.958474581782	299.248371325509	982.472378458460	298.496071727692	248.726105916088	1017.009379544307	186.277363273581	325.635133927474	1081.146473236549	402.112041721893	498.021124167034	972.357689922891	360.927617872177	578.709862846007	952.381304274920	250.861549047196	532.553808542157	748.221930093473	177.785186159793	536.220886230096	820.925953845415	125.412981560869	602.946406593878	1002.605517440430	35.193800089168	576.154874691968	874.314988345473	38.604485500171	364.221553732831	950.082940982596	35.743467333331	285.257860767734	1033.334242659551	96.014414023587	314.681570280031	1161.982369375562	43.869845347998	288.000436677064	1011.253350394639	1078.210011290867	91.595163578495	1097.852309609435	832.766472384312	109.586830770584	1054.877407479162	1057.934922326288	647.805887618565	1221.258385603689	868.691486261578	626.344794534669	
